<?xml version="1.0" encoding="UTF-8" standalone="no"?>
<svg
   xmlns:dc="http://purl.org/dc/elements/1.1/"
   xmlns:cc="http://creativecommons.org/ns#"
   xmlns:rdf="http://www.w3.org/1999/02/22-rdf-syntax-ns#"
   xmlns:svg="http://www.w3.org/2000/svg"
   xmlns="http://www.w3.org/2000/svg"
   xmlns:sodipodi="http://sodipodi.sourceforge.net/DTD/sodipodi-0.dtd"
   xmlns:inkscape="http://www.inkscape.org/namespaces/inkscape"
   version="1.1"
   x="0px"
   y="0px"
   viewBox="0 0 1080.2539 1090.847"
   enable-background="new 0 0 1000 1000"
   xml:space="preserve"
   id="svg10"
   sodipodi:docname="daa-traffic-avoid.svg"
   inkscape:version="0.92.3 (2405546, 2018-03-11)"
   width="1080.2539"
   height="1090.847"><defs
   id="defs14"><marker
     inkscape:stockid="Arrow1Lend"
     orient="auto"
     refY="0"
     refX="0"
     id="Arrow1Lend"
     style="overflow:visible"
     inkscape:isstock="true"><path
       id="path847"
       d="M 0,0 5,-5 -12.5,0 5,5 Z"
       style="fill-rule:evenodd;stroke:#000000;stroke-width:1.00000003pt"
       transform="matrix(-0.8,0,0,-0.8,-10,0)"
       inkscape:connector-curvature="0" /></marker></defs><sodipodi:namedview
   pagecolor="#ffffff"
   bordercolor="#666666"
   borderopacity="1"
   objecttolerance="10"
   gridtolerance="10"
   guidetolerance="10"
   inkscape:pageopacity="0"
   inkscape:pageshadow="2"
   inkscape:window-width="1479"
   inkscape:window-height="872"
   id="namedview12"
   showgrid="false"
   inkscape:zoom="0.472"
   inkscape:cx="497.84857"
   inkscape:cy="629.51499"
   inkscape:window-x="67"
   inkscape:window-y="27"
   inkscape:window-maximized="0"
   inkscape:current-layer="svg10" 
   />
<metadata
   id="metadata2"> Svg Vector Icons : http://www.onlinewebfonts.com/icon <rdf:RDF><cc:Work
     rdf:about=""><dc:format>image/svg+xml</dc:format><dc:type
       rdf:resource="http://purl.org/dc/dcmitype/StillImage" /><dc:title></dc:title></cc:Work></rdf:RDF></metadata>

<ellipse
   style="opacity:1;fill:#ffc107;fill-opacity:1;stroke:#ffc107;stroke-width:40.80849457;stroke-linejoin:round;stroke-miterlimit:4;stroke-dasharray:none;stroke-dashoffset:0;stroke-opacity:1"
   id="path1143"
   cx="540.12695"
   cy="545.42352"
   rx="519.72272"
   ry="525.01929" /><path
   style="opacity:1;fill:#000000;fill-opacity:1;stroke:#ffffff;stroke-width:5.32103109;stroke-opacity:0"
   d="m 689.54356,813.45359 c -77.6293,-75.3329 -143.3619,-136.969 -146.0724,-136.969 -2.7106,0 -67.9147,60.6244 -144.8982,134.721 -76.9834,74.0966 -140.7571,133.94255 -141.7192,132.99125 -1.4541,-1.4379 79.6662,-255.47935 256.4109,-802.99306 15.6558,-48.497903 29.2035,-87.451378 30.106,-86.563308 2.2415,2.20544 289.4923,893.992068 288.282,894.987968 -0.5308,0.4371 -64.4799,-60.84175 -142.1091,-136.17485 z"
   id="path814-6"
   inkscape:connector-curvature="0" /><path
   style="opacity:1;fill:#ffc107;fill-opacity:1;stroke:#ffffff;stroke-width:4.2891798;stroke-opacity:0"
   d="m 661.16044,752.77897 c -62.31862,-60.97467 -115.0869,-110.8631 -117.26282,-110.8631 -2.17599,0 -54.52001,49.06956 -116.3202,109.04356 -61.80011,59.974 -112.99584,108.41348 -113.76819,107.64349 -1.16731,-1.16384 63.95379,-206.7857 205.83946,-649.94484 12.56804,-39.25434 23.44375,-70.78339 24.16825,-70.06459 1.79942,1.78509 232.39628,723.5997 231.42469,724.40578 -0.42611,0.35379 -51.76265,-49.24548 -114.08119,-110.2203 z"
   id="path814-6-7"
   inkscape:connector-curvature="0" /></svg>