<?xml version="1.0" encoding="UTF-8" standalone="no"?>
<svg
   xmlns:dc="http://purl.org/dc/elements/1.1/"
   xmlns:cc="http://creativecommons.org/ns#"
   xmlns:rdf="http://www.w3.org/1999/02/22-rdf-syntax-ns#"
   xmlns:svg="http://www.w3.org/2000/svg"
   xmlns="http://www.w3.org/2000/svg"
   xmlns:sodipodi="http://sodipodi.sourceforge.net/DTD/sodipodi-0.dtd"
   xmlns:inkscape="http://www.inkscape.org/namespaces/inkscape"
   version="1.1"
   x="0px"
   y="0px"
   viewBox="0 0 541.43561 838.52313"
   enable-background="new 0 0 1000 1000"
   xml:space="preserve"
   id="svg10"
   sodipodi:docname="daa-target.svg"
   inkscape:version="0.92.3 (2405546, 2018-03-11)"
   style="-webkit-filter: drop-shadow( 3px 3px 2px rgba(0, 0, 0, 0.9)); filter: drop-shadow( 3px 3px 2px rgba(0, 0, 0, 0.9));"
   width="541.43561"
   height="838.52313"><defs
   id="defs14" /><sodipodi:namedview
   pagecolor="#ffffff"
   bordercolor="#666666"
   borderopacity="1"
   objecttolerance="10"
   gridtolerance="10"
   guidetolerance="10"
   inkscape:pageopacity="0"
   inkscape:pageshadow="2"
   inkscape:window-width="1479"
   inkscape:window-height="872"
   id="namedview12"
   showgrid="false"
   inkscape:zoom="0.236"
   inkscape:cx="-1318.4753"
   inkscape:cy="418.6954"
   inkscape:window-x="67"
   inkscape:window-y="27"
   inkscape:window-maximized="0"
   inkscape:current-layer="svg10" 
   />
<metadata
   id="metadata2"> Svg Vector Icons : http://www.onlinewebfonts.com/icon <rdf:RDF><cc:Work
     rdf:about=""><dc:format>image/svg+xml</dc:format><dc:type
       rdf:resource="http://purl.org/dc/dcmitype/StillImage" /><dc:title></dc:title></cc:Work></rdf:RDF></metadata>
<g
   id="g8"
   style="fill:#ffffff;image-rendering:auto"
   transform="matrix(0.56568542,-0.56568542,0.56568542,0.56568542,-294.76617,549.13714)"><g
     transform="matrix(0.1,0,0,-0.1,0,511)"
     id="g6"
     style="fill:#ffffff">
     <path d="M 9769.7 5011.3 C 9745 5011.3 130.7 35.3 119.8 19 C 87.1 -32.8 95.3 -100.9 141.6 -147.2 C 179.7 -185.3 4701 -190.8 4701 -190.8 C 4701 -190.8 4706.4 -4712 4744.6 -4750.2 C 4799.1 -4807.4 4872.6 -4804.7 4927.1 -4744.7 C 4970.7 -4698.4 9835 4692.6 9886.8 4826.1 C 9908.6 4886 9905.8 4910.5 9862.3 4954.1 C 9835.1 4986.8 9794.2 5011.3 9769.7 5011.3 Z M 8206.461 3258.774 C 7958.561 2999.974 4986.9 -4055.6 4986.9 -4055.6 C 4986.9 -4055.6 5601.137 629.613 5590.237 643.213 C 5576.637 654.113 833.4 95.2 833.4 95.2 C 833.4 95.2 8195.561 3258.774 8206.461 3258.774 Z" id="path4" style="">
     </path>
     </g></g>
</svg>